<?xml version="1.0" standalone="no"?>
<!DOCTYPE svg PUBLIC "-//W3C//DTD SVG 20010904//EN"
 "http://www.w3.org/TR/2001/REC-SVG-20010904/DTD/svg10.dtd">
<svg version="1.0" xmlns="http://www.w3.org/2000/svg"
 width="691.000000pt" height="405.000000pt" viewBox="0 0 691.000000 405.000000"
 preserveAspectRatio="xMidYMid meet">

<g transform="translate(0.000000,405.000000) scale(0.100000,-0.100000)"
fill="#000000" stroke="none">
<path d="M4235 3176 c-51 -22 -97 -68 -121 -121 l-24 -50 0 -456 0 -456 -89
-7 c-109 -9 -117 -16 -161 -141 -17 -49 -35 -94 -39 -98 -17 -17 -26 6 -131
343 -47 152 -67 194 -111 245 -44 49 -95 63 -153 41 -78 -30 -128 -106 -177
-267 -40 -135 -32 -129 -159 -129 l-110 0 0 43 c0 64 -18 159 -46 250 -150
476 -583 797 -1074 797 -459 0 -895 -313 -1039 -745 -78 -236 -76 -541 6 -768
119 -332 384 -594 703 -695 132 -42 172 -47 340 -46 145 1 177 4 262 27 380
101 689 401 801 777 14 47 31 111 37 143 l12 58 156 -3 c113 -2 163 1 179 10
27 15 47 52 78 141 37 107 74 183 88 179 13 -4 39 -80 107 -313 70 -239 118
-312 215 -323 83 -9 133 44 195 208 36 95 36 95 70 95 l35 0 5 -440 5 -440 28
-58 c33 -66 75 -99 149 -118 85 -21 119 -5 358 165 291 206 462 326 810 570
363 253 398 281 424 331 31 59 33 149 6 212 -12 28 -33 62 -48 75 -15 14 -218
155 -452 313 -234 159 -540 367 -680 463 -140 96 -269 181 -287 188 -41 18
-129 17 -168 0z m405 -462 c152 -104 385 -263 518 -354 411 -280 447 -306 447
-325 0 -13 -189 -152 -625 -462 -344 -243 -629 -441 -635 -440 -7 3 -11 311
-13 892 -2 842 -1 887 15 883 10 -3 142 -90 293 -194z"/>
</g>
</svg>
