<?xml version="1.0" standalone="no"?>
<!DOCTYPE svg PUBLIC "-//W3C//DTD SVG 20010904//EN"
 "http://www.w3.org/TR/2001/REC-SVG-20010904/DTD/svg10.dtd">
<svg version="1.0" xmlns="http://www.w3.org/2000/svg"
 width="1024.000000pt" height="1024.000000pt" viewBox="0 0 1024.000000 1024.000000"
 preserveAspectRatio="xMidYMid meet">

<g transform="translate(0.000000,1024.000000) scale(0.100000,-0.100000)"
fill="#000000" stroke="none">
<path d="M4833 7316 c-23 -7 -62 -25 -85 -39 -24 -14 -570 -554 -1214 -1199
-1336 -1338 -1229 -1216 -1229 -1398 0 -93 3 -111 27 -163 35 -73 116 -155
193 -193 55 -26 69 -29 165 -29 186 0 67 -104 1387 1217 634 634 1161 1165
1173 1180 11 15 33 53 48 85 24 51 27 70 27 153 -1 132 -26 192 -114 281 -49
49 -81 72 -126 89 -74 28 -192 36 -252 16z"/>
<path d="M3286 7309 c-111 -26 -136 -48 -671 -586 -379 -382 -517 -527 -538
-566 -90 -172 -33 -392 131 -495 130 -83 295 -80 429 7 67 42 1023 1005 1055
1061 89 156 72 340 -42 464 -93 101 -233 145 -364 115z"/>
<path d="M6834 7295 c-38 -19 -427 -403 -1791 -1767 -1677 -1678 -1743 -1746
-1778 -1817 -72 -144 -79 -286 -19 -404 36 -72 38 -75 375 -413 337 -340 366
-362 498 -390 53 -10 86 -12 137 -5 143 21 17 -98 1907 1795 1903 1907 1779
1774 1793 1916 8 81 -14 175 -56 240 -16 25 -206 221 -422 437 -294 293 -404
397 -438 412 -64 29 -143 28 -206 -4z"/>
<path d="M7119 4763 c-39 -19 -1909 -1897 -1941 -1948 -25 -41 -24 -117 3
-172 25 -52 89 -94 146 -95 21 -1 670 157 1442 350 1039 261 1416 359 1453
379 123 67 167 197 106 316 -21 42 -69 99 -323 382 -610 681 -682 758 -728
782 -46 23 -117 26 -158 6z"/>
</g>
</svg>
